HIERARCHY
ROOT Hips
{
  OFFSET -1.94299 89.2169 1.81292
  CHANNELS 6 Xposition Yposition Zposition Zrotation Xrotation Yrotation
  JOINT Spine
  {
    OFFSET 0 10.1816 0.1315
    CHANNELS 6 Xposition Yposition Zposition Zrotation Xrotation Yrotation
    JOINT Spine1
    {
      OFFSET 0 10.0835 -1.0008
      CHANNELS 6 Xposition Yposition Zposition Zrotation Xrotation Yrotation
      JOINT Spine2
      {
        OFFSET 0 9.1 -1.3734
        CHANNELS 6 Xposition Yposition Zposition Zrotation Xrotation Yrotation
        JOINT Neck
        {
          OFFSET 0 16.6717 -2.5162
          CHANNELS 6 Xposition Yposition Zposition Zrotation Xrotation Yrotation
          JOINT Head
          {
            OFFSET 0 9.6179 1.685
            CHANNELS 6 Xposition Yposition Zposition Zrotation Xrotation Yrotation
            JOINT HeadTop_End
            {
              OFFSET 0 17.8152 2.585
              CHANNELS 6 Xposition Yposition Zposition Zrotation Xrotation Yrotation
              End Site
              {
                OFFSET 0 0 0
              }
            }
            JOINT LeftEye
            {
              OFFSET 3.0676 6.4095 9.2836
              CHANNELS 6 Xposition Yposition Zposition Zrotation Xrotation Yrotation
              End Site
              {
                OFFSET 0 0 0
              }
            }
            JOINT RightEye
            {
              OFFSET -3.0676 6.4095 9.2835
              CHANNELS 6 Xposition Yposition Zposition Zrotation Xrotation Yrotation
              End Site
              {
                OFFSET 0 0 0
              }
            }
          }
        }
        JOINT LeftShoulder
        {
          OFFSET 4.5704 10.946 -2.628
          CHANNELS 6 Xposition Yposition Zposition Zrotation Xrotation Yrotation
          JOINT LeftArm
          {
            OFFSET 10.5924 -0.5246 -2.2321
            CHANNELS 6 Xposition Yposition Zposition Zrotation Xrotation Yrotation
            JOINT LeftForeArm
            {
              OFFSET 27.8415 -0.0001 0
              CHANNELS 6 Xposition Yposition Zposition Zrotation Xrotation Yrotation
              JOINT LeftHand
              {
                OFFSET 28.3288 0 0
                CHANNELS 6 Xposition Yposition Zposition Zrotation Xrotation Yrotation
                JOINT LeftHandThumb1
                {
                  OFFSET 2.4661 -1.575 2.6824
                  CHANNELS 6 Xposition Yposition Zposition Zrotation Xrotation Yrotation
                  JOINT LeftHandThumb2
                  {
                    OFFSET 3.2298 -1.8647 1.8647
                    CHANNELS 6 Xposition Yposition Zposition Zrotation Xrotation Yrotation
                    JOINT LeftHandThumb3
                    {
                      OFFSET 2.6526 -1.5315 1.5315
                      CHANNELS 6 Xposition Yposition Zposition Zrotation Xrotation Yrotation
                      End Site
                      {
                        OFFSET 1.9546 -1.1285 1.1285
                      }
                    }
                  }
                }
                JOINT LeftHandIndex1
                {
                  OFFSET 9.1093 -0.5171 2.2601
                  CHANNELS 6 Xposition Yposition Zposition Zrotation Xrotation Yrotation
                  JOINT LeftHandIndex2
                  {
                    OFFSET 3.6764 0 0
                    CHANNELS 6 Xposition Yposition Zposition Zrotation Xrotation Yrotation
                    JOINT LeftHandIndex3
                    {
                      OFFSET 2.8831 0 0
                      CHANNELS 6 Xposition Yposition Zposition Zrotation Xrotation Yrotation
                      End Site
                      {
                        OFFSET 2.3927 0 0
                      }
                    }
                  }
                }
                JOINT LeftHandMiddle1
                {
                  OFFSET 9.5334 0 0
                  CHANNELS 6 Xposition Yposition Zposition Zrotation Xrotation Yrotation
                  JOINT LeftHandMiddle2
                  {
                    OFFSET 3.6982 0 0
                    CHANNELS 6 Xposition Yposition Zposition Zrotation Xrotation Yrotation
                    JOINT LeftHandMiddle3
                    {
                      OFFSET 2.9509 0 0
                      CHANNELS 6 Xposition Yposition Zposition Zrotation Xrotation Yrotation
                      End Site
                      {
                        OFFSET 2.8339 0 0
                      }
                    }
                  }
                }
                JOINT LeftHandRing1
                {
                  OFFSET 9.1045 -0.0439 -1.8651
                  CHANNELS 6 Xposition Yposition Zposition Zrotation Xrotation Yrotation
                  JOINT LeftHandRing2
                  {
                    OFFSET 3.154 0 0
                    CHANNELS 6 Xposition Yposition Zposition Zrotation Xrotation Yrotation
                    JOINT LeftHandRing3
                    {
                      OFFSET 2.9377 0 0
                      CHANNELS 6 Xposition Yposition Zposition Zrotation Xrotation Yrotation
                      End Site
                      {
                        OFFSET 2.6475 0 0
                      }
                    }
                  }
                }
                JOINT LeftHandPinky1
                {
                  OFFSET 8.0778 -0.4887 -3.8061
                  CHANNELS 6 Xposition Yposition Zposition Zrotation Xrotation Yrotation
                  JOINT LeftHandPinky2
                  {
                    OFFSET 3.6 0 0
                    CHANNELS 6 Xposition Yposition Zposition Zrotation Xrotation Yrotation
                    JOINT LeftHandPinky3
                    {
                      OFFSET 2.1142 0 0
                      CHANNELS 6 Xposition Yposition Zposition Zrotation Xrotation Yrotation
                      End Site
                      {
                        OFFSET 1.9757 0 0
                      }
                    }
                  }
                }
              }
            }
          }
        }
        JOINT RightShoulder
        {
          OFFSET -4.57 10.9462 -2.628
          CHANNELS 6 Xposition Yposition Zposition Zrotation Xrotation Yrotation
          JOINT RightArm
          {
            OFFSET -10.5928 -0.5248 -2.2321
            CHANNELS 6 Xposition Yposition Zposition Zrotation Xrotation Yrotation
            JOINT RightForeArm
            {
              OFFSET -27.8415 0 0
              CHANNELS 6 Xposition Yposition Zposition Zrotation Xrotation Yrotation
              JOINT RightHand
              {
                OFFSET -28.3288 0 0.0001
                CHANNELS 6 Xposition Yposition Zposition Zrotation Xrotation Yrotation
                JOINT RightHandPinky1
                {
                  OFFSET -8.0767 -0.4885 -3.806
                  CHANNELS 6 Xposition Yposition Zposition Zrotation Xrotation Yrotation
                  JOINT RightHandPinky2
                  {
                    OFFSET -3.6 0 0.0001
                    CHANNELS 6 Xposition Yposition Zposition Zrotation Xrotation Yrotation
                    JOINT RightHandPinky3
                    {
                      OFFSET -2.1142 0 0
                      CHANNELS 6 Xposition Yposition Zposition Zrotation Xrotation Yrotation
                      End Site
                      {
                        OFFSET -1.9757 0 0
                      }
                    }
                  }
                }
                JOINT RightHandRing1
                {
                  OFFSET -9.1036 -0.0439 -1.8651
                  CHANNELS 6 Xposition Yposition Zposition Zrotation Xrotation Yrotation
                  JOINT RightHandRing2
                  {
                    OFFSET -3.154 0 0
                    CHANNELS 6 Xposition Yposition Zposition Zrotation Xrotation Yrotation
                    JOINT RightHandRing3
                    {
                      OFFSET -2.9377 0 0
                      CHANNELS 6 Xposition Yposition Zposition Zrotation Xrotation Yrotation
                      End Site
                      {
                        OFFSET -2.6475 0 0
                      }
                    }
                  }
                }
                JOINT RightHandMiddle1
                {
                  OFFSET -9.5325 0 0
                  CHANNELS 6 Xposition Yposition Zposition Zrotation Xrotation Yrotation
                  JOINT RightHandMiddle2
                  {
                    OFFSET -3.6982 0 0
                    CHANNELS 6 Xposition Yposition Zposition Zrotation Xrotation Yrotation
                    JOINT RightHandMiddle3
                    {
                      OFFSET -2.9509 0 0
                      CHANNELS 6 Xposition Yposition Zposition Zrotation Xrotation Yrotation
                      End Site
                      {
                        OFFSET -2.8339 0 0.0001
                      }
                    }
                  }
                }
                JOINT RightHandIndex1
                {
                  OFFSET -9.1083 -0.5168 2.2601
                  CHANNELS 6 Xposition Yposition Zposition Zrotation Xrotation Yrotation
                  JOINT RightHandIndex2
                  {
                    OFFSET -3.6764 0 0
                    CHANNELS 6 Xposition Yposition Zposition Zrotation Xrotation Yrotation
                    JOINT RightHandIndex3
                    {
                      OFFSET -2.8831 0 0
                      CHANNELS 6 Xposition Yposition Zposition Zrotation Xrotation Yrotation
                      End Site
                      {
                        OFFSET -2.3927 0 0
                      }
                    }
                  }
                }
                JOINT RightHandThumb1
                {
                  OFFSET -2.4648 -1.5727 2.6826
                  CHANNELS 6 Xposition Yposition Zposition Zrotation Xrotation Yrotation
                  JOINT RightHandThumb2
                  {
                    OFFSET -3.2298 -1.8647 1.8647
                    CHANNELS 6 Xposition Yposition Zposition Zrotation Xrotation Yrotation
                    JOINT RightHandThumb3
                    {
                      OFFSET -2.6526 -1.5314 1.5314
                      CHANNELS 6 Xposition Yposition Zposition Zrotation Xrotation Yrotation
                      End Site
                      {
                        OFFSET -1.9546 -1.1285 1.1285
                      }
                    }
                  }
                }
              }
            }
          }
        }
      }
    }
  }
  JOINT LeftUpLeg
  {
    OFFSET 8.2078 -6.7517 -1.5996
    CHANNELS 6 Xposition Yposition Zposition Zrotation Xrotation Yrotation
    JOINT LeftLeg
    {
      OFFSET 0 -44.3705 0.2846
      CHANNELS 6 Xposition Yposition Zposition Zrotation Xrotation Yrotation
      JOINT LeftFoot
      {
        OFFSET 0 -44.4279 -2.9822
        CHANNELS 6 Xposition Yposition Zposition Zrotation Xrotation Yrotation
        JOINT LeftToeBase
        {
          OFFSET 0 -8.7287 10.7106
          CHANNELS 6 Xposition Yposition Zposition Zrotation Xrotation Yrotation
          End Site
          {
            OFFSET 0 -0.0007 9.2781
          }
        }
      }
    }
  }
  JOINT RightUpLeg
  {
    OFFSET -8.2078 -6.7517 -1.5996
    CHANNELS 6 Xposition Yposition Zposition Zrotation Xrotation Yrotation
    JOINT RightLeg
    {
      OFFSET 0 -44.3705 0.2862
      CHANNELS 6 Xposition Yposition Zposition Zrotation Xrotation Yrotation
      JOINT RightFoot
      {
        OFFSET 0 -44.4277 -2.9838
        CHANNELS 6 Xposition Yposition Zposition Zrotation Xrotation Yrotation
        JOINT RightToeBase
        {
          OFFSET 0 -8.7287 10.7106
          CHANNELS 6 Xposition Yposition Zposition Zrotation Xrotation Yrotation
          End Site
          {
            OFFSET 0 -0.0007 9.2781
          }
        }
      }
    }
  }
}
MOTION
Frames:	4
Frame Time:	0.0333333
-1.94299 89.2169 1.81292 -6.71762 -18.3563 -26.4178 4.44089e-016 10.1816 0.1315 9.99406 15.2989 -3.11979 -3.55271e-015 10.0835 -1.0008 5.37363 8.81808 -1.2906 0 9.1 -1.3734 5.34248 8.84872 -1.15331 0 16.6717 -2.5162 -2.25149 7.70499 4.91033 0 9.6179 1.685 1.35406 -24.7359 24.3715 3.55271e-015 17.8152 2.585 1.68967e-015 3.18055e-015 -1.59028e-015 3.0676 6.4095 9.2836 1.68967e-015 3.18055e-015 -1.59028e-015 -3.0676 6.4095 9.2835 1.68967e-015 3.18055e-015 -1.59028e-015 4.5704 10.946 -2.628 -5.37884 4.77535 -22.8336 10.5924 -0.5246 -2.2321 -77.9937 -57.2007 -9.38623 27.8415 -0.0001 -3.55271e-015 -0.000245606 -9.34177e-006 -107.825 28.3288 0 0 30.427 -78.4233 28.3211 2.4661 -1.575 2.6824 -17.7869 -9.05885 -4.21116 3.2298 -1.8647 1.8647 0.739168 4.04322 7.89737 2.6526 -1.5315 1.5315 -2.23857 7.24888 23.1093 9.1093 -0.5171 2.2601 -59.9824 -3.44846 7.41766 3.6764 0 0 -62.8776 -3.75739 6.14251 2.8831 0 0 -5.60378 -0.0329166 0.672671 9.5334 -7.10543e-015 0 -68.3097 -4.35397 6.38103 3.6982 -7.10543e-015 0 -52.1476 -2.66697 5.44711 2.9509 0 0 -10.4609 -0.114511 1.25076 9.1045 -0.0439 -1.8651 -53.9812 -2.84151 7.05938 3.154 3.55271e-015 0 -45.4129 -2.05628 4.9117 2.9377 0 0 -7.70284 -0.0621707 0.923314 8.0778 -0.4887 -3.8061 -54.6111 -2.88715 9.73992 3.6 3.55271e-015 1.42109e-014 -32.182 1.11783 0.178658 2.1142 0 0 -10.3332 -0.111731 1.23565 -4.57 10.9462 -2.628 -1.6689 -0.0486873 -4.20073 -10.5928 -0.5248 -2.2321 31.2057 35.5019 29.2932 -27.8415 0 0 2.8368e-006 -8.86143e-006 125.503 -28.3288 1.42109e-014 0.0001 -6.31998 22.1516 -31.3939 -8.0767 -0.4885 -3.806 10.7759 -0.0997422 -5.98748 -3.6 0 0.0001 37.2206 -1.41761 -4.20975 -2.1142 0 0 -1.13095e-006 5.51804e-006 -9.58643e-006 -9.1036 -0.0439 -1.8651 24.222 -0.52328 -12.1136 -3.154 0 1.42109e-014 34.4121 -1.21863 -3.93391 -2.9377 0 -1.42109e-014 9.27981 -0.0910242 -1.12168 -9.5325 0 1.42109e-014 27.7575 -0.777659 -7.96759 -3.6982 0 -1.42109e-014 42.114 -1.79863 -4.66953 -2.9509 0 0 0.772908 -0.000657362 -0.0958461 -9.1083 -0.5168 2.2601 46.8545 -2.19548 -2.40333 -3.6764 0 0 35.4691 -1.29227 -4.03933 -2.8831 3.55271e-015 1.42109e-014 4.77227e-006 1.03277e-005 1.2323e-005 -2.4648 -1.5727 2.6826 9.75173 -4.1654 -14.9547 -3.2298 -1.8647 1.8647 0.570047 8.59679 -19.4706 -2.6526 -1.5314 1.5314 -2.09213 -1.40752 0.411088 8.2078 -6.7517 -1.5996 21.8405 -18.026 16.8902 0 -44.3705 0.2846 10.81 29.8071 -8.23757 0 -44.4279 -2.9822 -21.6665 -4.96753 -0.353827 3.55271e-015 -8.7287 10.7106 -4.95971e-006 -6.74248 1.20353e-006 -8.2078 -6.7517 -1.5996 -11.3882 -9.60571 -12.1093 0 -44.3705 0.2862 -6.95495 63.6902 2.51769 3.55271e-015 -44.4277 -2.9838 8.78006 -33.018 2.66572 0 -8.7287 10.7106 3.32753e-006 -2.01917 -6.80607e-006 
-1.70523 89.3715 2.27989 -6.93631 -18.277 -26.8944 4.44089e-016 10.1816 0.1315 10.2289 15.2469 -3.19521 0 10.0835 -1.0008 5.48979 8.7953 -1.3276 3.55271e-015 9.1 -1.3734 5.45804 8.82729 -1.18995 -7.10543e-015 16.6717 -2.5162 -1.97236 7.7636 5.02188 0 9.6179 1.685 1.63556 -24.0878 25.2519 0 17.8152 2.585 6.4605e-015 0 3.97569e-016 3.0676 6.4095 9.2836 6.4605e-015 0 3.97569e-016 -3.0676 6.4095 9.2835 6.4605e-015 0 3.97569e-016 4.5704 10.946 -2.628 -5.39176 4.7129 -22.5354 10.5924 -0.5246 -2.2321 -78.2602 -57.175 -8.7742 27.8415 -0.0001 0 -0.000198364 -7.09528e-013 -107.789 28.3288 0 0 29.1143 -78.5234 26.942 2.4661 -1.575 2.6824 -18.1793 -9.13066 -4.24953 3.2298 -1.8647 1.8647 0.739153 4.04323 7.89737 2.6526 -1.5315 1.5315 -2.30257 7.34242 23.3612 9.1093 -0.5171 2.2601 -59.8836 -3.43852 7.28459 3.6764 0 -1.42109e-014 -62.6897 -3.73723 6.13215 2.8831 0 -1.42109e-014 -5.53729 -0.0321415 0.66467 9.5334 -2.13163e-014 0 -68.0939 -4.32982 6.35142 3.6982 0 0 -52.4115 -2.69218 5.46661 2.9509 0 1.42109e-014 -10.5006 -0.115367 1.25546 9.1045 -0.0439 -1.8651 -53.8675 -2.83055 7.01195 3.154 -3.55271e-015 -1.42109e-014 -45.4154 -2.05653 4.91193 2.9377 0 0 -7.71366 -0.0623213 0.92459 8.0778 -0.4887 -3.8061 -54.5925 -2.88533 9.73865 3.6 3.55271e-015 -1.42109e-014 -32.0864 1.11812 0.165298 2.1142 0 0 -10.2917 -0.110849 1.23074 -4.57 10.9462 -2.628 -1.52438 -0.0442176 -4.12568 -10.5928 -0.5248 -2.2321 31.0923 35.3244 29.1558 -27.8415 0 7.10543e-015 -5.68368e-006 1.7737e-005 125.535 -28.3288 1.42109e-014 0.0001 -5.89619 21.9506 -31.447 -8.0767 -0.4885 -3.806 10.4622 -0.095165 -5.69416 -3.6 1.42109e-014 0.0001 37.0302 -1.40364 -4.19128 -2.1142 0 0 -1.13095e-006 5.51804e-006 -9.58643e-006 -9.1036 -0.0439 -1.8651 24.8185 -0.563865 -11.6181 -3.154 0 0 34.056 -1.19425 -3.89809 -2.9377 0 1.42109e-014 9.12604 -0.0880097 -1.10323 -9.5325 -1.42109e-014 0 28.617 -0.832083 -7.51748 -3.6982 -1.42109e-014 1.42109e-014 41.9801 -1.78773 -4.65743 -2.9509 0 0 0.240483 -7.04434e-005 -0.0312139 -9.1083 -0.5168 2.2601 44.5501 -1.99319 -1.9568 -3.6764 0 0 33.3231 -1.14482 -3.82389 -2.8831 0 0 -1.6761e-006 1.2258e-005 -4.83634e-006 -2.4648 -1.5727 2.6826 9.74548 -4.17479 -14.942 -3.2298 -1.8647 1.8647 0.546457 8.49336 -19.1891 -2.6526 -1.5314 1.5314 -2.09872 -1.22574 -0.0397355 8.2078 -6.7517 -1.5996 21.9494 -17.8019 17.0755 -3.55271e-015 -44.3705 0.2846 10.8437 30.1686 -8.09032 -7.10543e-015 -44.4279 -2.9822 -21.5025 -4.87395 -0.311238 0 -8.7287 10.7106 -6.45243e-006 -7.07369 4.05646e-006 -8.2078 -6.7517 -1.5996 -11.4957 -9.23677 -11.9416 -1.77636e-015 -44.3705 0.2862 -6.91299 63.2059 2.86147 3.55271e-015 -44.4277 -2.9838 8.90879 -32.8794 2.68115 -1.77636e-015 -8.7287 10.7106 1.74235e-006 -1.99535 -2.33057e-005 
-1.45363 89.8263 2.8124 -6.90629 -17.7217 -27.2593 4.44089e-016 10.1816 0.1315 10.2805 14.866 -3.16536 0 10.0835 -1.0008 5.52544 8.60592 -1.31787 -3.55271e-015 9.1 -1.3734 5.49516 8.63777 -1.1806 -7.10543e-015 16.6717 -2.5162 -1.67594 7.80992 5.07448 0 9.6179 1.685 1.99511 -23.5816 25.832 0 17.8152 2.585 -1.09332e-015 0 -0 3.0676 6.4095 9.2836 -1.09332e-015 0 -0 -3.0676 6.4095 9.2835 -1.09332e-015 0 -0 4.5704 10.946 -2.628 -5.40117 4.66328 -22.298 10.5924 -0.5246 -2.2321 -77.7212 -57.1556 -7.59679 27.8415 -0.0001 0 -0.000196898 9.34534e-006 -107.832 28.3288 1.42109e-014 0 27.9568 -78.3053 25.8553 2.4661 -1.575 2.6824 -18.5332 -9.23793 -4.34713 3.2298 -1.8647 1.8647 0.739165 4.04324 7.89737 2.6526 -1.5315 1.5315 -2.3513 7.41344 23.5523 9.1093 -0.5171 2.2601 -59.8946 -3.44002 7.14513 3.6764 0 0 -62.4255 -3.70893 6.11742 2.8831 -1.42109e-014 1.42109e-014 -5.55889 -0.0324017 0.66728 9.5334 -7.10543e-015 0 -67.9604 -4.31487 6.31531 3.6982 7.10543e-015 0 -52.6265 -2.71274 5.48241 2.9509 0 1.42109e-014 -10.5474 -0.116406 1.261 9.1045 -0.0439 -1.8651 -53.787 -2.82278 6.96965 3.154 3.55271e-015 0 -45.4471 -2.05922 4.91461 2.9377 0 0 -7.73602 -0.0627173 0.927258 8.0778 -0.4887 -3.8061 -54.513 -2.87748 9.73306 3.6 0 0 -32.0387 1.11823 0.158625 2.1142 1.42109e-014 1.42109e-014 -10.2991 -0.11099 1.23162 -4.57 10.9462 -2.628 -1.28929 -0.0367102 -4.00658 -10.5928 -0.5248 -2.2321 30.6499 35.3074 29.103 -27.8415 0 -7.10543e-015 1.8108e-005 -8.87875e-006 125.583 -28.3288 -7.10543e-015 0.0001 -5.71234 21.3085 -31.602 -8.0767 -0.4885 -3.806 10.0003 -0.0874694 -5.38841 -3.6 -1.42109e-014 0.0001 36.191 -1.34276 -4.10929 -2.1142 7.10543e-015 0 -1.13095e-006 5.51804e-006 -9.58643e-006 -9.1036 -0.0439 -1.8651 25.3204 -0.600133 -11.0779 -3.154 0 0 32.7508 -1.10686 -3.76552 -2.9377 -7.10543e-015 1.42109e-014 8.70438 -0.0799942 -1.05268 -9.5325 0 -1.42109e-014 29.7147 -0.900877 -7.18181 -3.6982 -1.42109e-014 -1.42109e-014 41.1654 -1.72196 -4.58322 -2.9509 0 0 -0.0361855 3.9795e-005 0.00237717 -9.1083 -0.5168 2.2601 43.9168 -1.94047 -2.08333 -3.6764 0 0 32.0115 -1.0587 -3.68956 -2.8831 0 0 -5.71874e-007 2.12956e-006 -6.93676e-006 -2.4648 -1.5727 2.6826 9.53565 -4.20507 -14.8731 -3.2298 -1.8647 1.8647 0.490054 8.24309 -18.5072 -2.6526 -1.5314 1.5314 -2.10707 -0.972861 -0.664846 8.2078 -6.7517 -1.5996 21.8324 -17.6944 17.0599 0 -44.3705 0.2846 10.7786 30.0398 -7.41324 -3.55271e-015 -44.4279 -2.9822 -21.3824 -5.60478 -0.453025 0 -8.7287 10.7106 5.95526e-006 -7.07446 3.37628e-006 -8.2078 -6.7517 -1.5996 -11.4645 -9.07794 -11.7151 1.77636e-015 -44.3705 0.2862 -6.70805 62.0232 2.82953 -1.77636e-015 -44.4277 -2.9838 9.12707 -32.3494 2.67973 0 -8.7287 10.7106 -5.49067e-006 -1.82279 -2.44696e-005 
-1.16009 90.5506 3.38879 -6.65322 -16.8605 -27.567 0 10.1816 0.1315 10.2518 14.2442 -3.09188 3.55271e-015 10.0835 -1.0008 5.52558 8.29153 -1.28914 -7.10543e-015 9.1 -1.3734 5.49776 8.3228 -1.15182 0 16.6717 -2.5162 -1.4272 7.82458 5.11293 7.10543e-015 9.6179 1.685 2.53157 -23.2457 26.2584 7.10543e-015 17.8152 2.585 2.78299e-015 -1.59028e-015 -0 3.0676 6.4095 9.2836 2.78299e-015 -1.59028e-015 -0 -3.0676 6.4095 9.2835 2.78299e-015 -1.59028e-015 -0 4.5704 10.946 -2.628 -5.376 4.6075 -22.1365 10.5924 -0.5246 -2.2321 -76.7324 -57.085 -6.16426 27.8415 -0.0001 0 -0.000229626 -4.70845e-006 -107.973 28.3288 0 1.42109e-014 27.0899 -77.801 25.15 2.4661 -1.575 2.6824 -18.8078 -9.36343 -4.4856 3.2298 -1.8647 1.8647 0.739154 4.04324 7.89737 2.6526 -1.5315 1.5315 -2.38172 7.45772 23.6715 9.1093 -0.5171 2.2601 -60.037 -3.45514 7.05049 3.6764 -7.10543e-015 1.42109e-014 -62.3103 -3.69663 6.11095 2.8831 0 0 -5.57981 -0.0326444 0.66978 9.5334 -7.10543e-015 0 -67.9323 -4.31173 6.28181 3.6982 0 1.42109e-014 -52.7723 -2.72674 5.49308 2.9509 0 0 -10.6126 -0.117853 1.2687 9.1045 -0.0439 -1.8651 -53.7425 -2.81849 6.95296 3.154 0 0 -45.4446 -2.05903 4.91439 2.9377 0 -1.42109e-014 -7.76492 -0.0631625 0.930688 8.0778 -0.4887 -3.8061 -54.3518 -2.86168 9.72175 3.6 3.55271e-015 -1.42109e-014 -32.0173 1.11829 0.15564 2.1142 -2.84217e-014 0 -10.3295 -0.11165 1.23522 -4.57 10.9462 -2.628 -1.06437 -0.0295473 -3.89678 -10.5928 -0.5248 -2.2321 29.7494 35.4147 29.3477 -27.8415 0 0 3.05176e-005 4.08795e-015 125.634 -28.3288 0 0.0001 -5.82752 20.4101 -31.9392 -8.0767 -0.4885 -3.806 9.7345 -0.0843252 -5.0728 -3.6 1.42109e-014 0.0001 34.9807 -1.25711 -3.98949 -2.1142 0 0 -1.13095e-006 5.51804e-006 -9.58643e-006 -9.1036 -0.0439 -1.8651 25.675 -0.62716 -10.5985 -3.154 0 0 30.82 -0.983172 -3.56587 -2.9377 0 1.42109e-014 8.03968 -0.0681461 -0.972824 -9.5325 0 0 30.8704 -0.973659 -7.04906 -3.6982 1.42109e-014 0 39.4742 -1.58874 -4.4262 -2.9509 7.10543e-015 0 0.000524558 1.44437e-005 -0.00209063 -9.1083 -0.5168 2.2601 45.1803 -2.05079 -2.64647 -3.6764 0 -1.42109e-014 31.4654 -1.02373 -3.63305 -2.8831 0 1.42109e-014 4.6986e-006 2.74067e-008 2.1639e-006 -2.4648 -1.5727 2.6826 9.1432 -4.2651 -14.7403 -3.2298 -1.8647 1.8647 0.427815 7.96215 -17.7402 -2.6526 -1.5314 1.5314 -2.11359 -0.752905 -1.20659 8.2078 -6.7517 -1.5996 21.4254 -17.545 16.9187 0 -44.3705 0.2846 10.6687 29.3672 -6.33246 3.55271e-015 -44.4279 -2.9822 -21.2929 -6.96688 -0.73396 3.55271e-015 -8.7287 10.7106 1.23336e-005 -6.67142 5.49415e-006 -8.2078 -6.7517 -1.5996 -11.3848 -9.00343 -11.4039 -1.77636e-015 -44.3705 0.2862 -6.4125 60.1833 2.64229 -1.77636e-015 -44.4277 -2.9838 9.37054 -31.4567 2.64509 1.77636e-015 -8.7287 10.7106 4.6081e-006 -1.60536 4.82885e-006 
